<?xml version="1.0" standalone="no"?>
<!DOCTYPE svg PUBLIC "-//W3C//DTD SVG 20010904//EN"
 "http://www.w3.org/TR/2001/REC-SVG-20010904/DTD/svg10.dtd">
<svg version="1.0" xmlns="http://www.w3.org/2000/svg"
 width="1024.000000pt" height="1024.000000pt" viewBox="0 0 1024.000000 1024.000000"
 preserveAspectRatio="xMidYMid meet">

<g transform="translate(0.000000,1024.000000) scale(0.100000,-0.100000)"
fill="#000000" stroke="none">
<path d="M5035 7876 c-27 -13 -129 -72 -225 -132 -559 -346 -1149 -559 -1759
-634 -212 -26 -255 -48 -302 -155 -26 -59 -35 -187 -45 -660 -10 -506 20 -910
96 -1280 209 -1015 696 -1693 1660 -2311 189 -122 393 -241 505 -296 138 -68
168 -66 348 25 154 77 516 303 699 434 414 298 704 587 932 931 331 499 512
1070 571 1795 28 356 15 1241 -21 1349 -21 65 -82 124 -147 142 -29 9 -115 23
-192 31 -318 37 -645 122 -1000 261 -206 81 -537 249 -720 364 -264 168 -304
181 -400 136z m177 -574 c583 -363 1069 -540 1774 -648 30 -4 31 -7 38 -66 10
-97 7 -779 -4 -933 -61 -835 -273 -1383 -734 -1898 -170 -191 -456 -427 -713
-590 -137 -86 -431 -247 -452 -247 -8 0 -66 27 -130 61 -818 428 -1367 1025
-1599 1739 -92 283 -147 584 -172 940 -11 159 -14 832 -4 927 l7 60 86 12
c328 45 728 154 1036 283 219 91 622 307 743 397 15 11 28 21 29 21 1 0 44
-26 95 -58z"/>
<path d="M5167 6599 c67 -5 166 -17 220 -28 111 -23 139 -21 36 2 -97 23 -226
37 -308 36 -55 -2 -45 -4 52 -10z"/>
<path d="M4958 6593 c12 -2 32 -2 45 0 12 2 2 4 -23 4 -25 0 -35 -2 -22 -4z"/>
<path d="M4785 6566 c-325 -85 -625 -295 -803 -561 -53 -80 -134 -238 -146
-285 l-6 -25 12 25 c6 14 29 62 50 107 119 256 355 495 617 628 91 45 226 91
334 114 51 11 79 20 62 20 -16 0 -70 -10 -120 -23z"/>
<path d="M5570 6521 c304 -114 568 -330 712 -584 49 -86 65 -102 23 -23 -94
179 -259 355 -441 471 -103 66 -320 166 -357 165 -6 -1 22 -14 63 -29z"/>
<path d="M4998 6343 c18 -2 45 -2 60 0 15 2 0 4 -33 4 -33 0 -45 -2 -27 -4z"/>
<path d="M5178 6343 c17 -2 47 -2 65 0 17 2 3 4 -33 4 -36 0 -50 -2 -32 -4z"/>
<path d="M4923 6333 c9 -2 23 -2 30 0 6 3 -1 5 -18 5 -16 0 -22 -2 -12 -5z"/>
<path d="M5293 6333 c9 -2 23 -2 30 0 6 3 -1 5 -18 5 -16 0 -22 -2 -12 -5z"/>
<path d="M4868 6323 c6 -2 18 -2 25 0 6 3 1 5 -13 5 -14 0 -19 -2 -12 -5z"/>
<path d="M5420 6304 c344 -100 618 -351 740 -680 16 -44 29 -73 30 -67 0 22
-50 146 -87 213 -75 138 -195 276 -322 370 -106 78 -363 192 -429 189 -9 0 21
-11 68 -25z"/>
<path d="M4828 6313 c7 -3 16 -2 19 1 4 3 -2 6 -13 5 -11 0 -14 -3 -6 -6z"/>
<path d="M4705 6277 c-224 -91 -395 -230 -522 -424 -48 -73 -103 -181 -103
-201 0 -4 20 33 45 81 131 262 337 444 615 548 41 15 68 28 60 28 -8 1 -51
-14 -95 -32z"/>
<path d="M6340 5837 c0 -4 9 -26 21 -48 11 -22 33 -79 50 -127 16 -48 26 -71
23 -52 -10 58 -92 257 -94 227z"/>
<path d="M5730 5767 c61 -21 81 -37 101 -80 10 -23 19 -36 19 -29 1 46 -61
105 -120 115 l-35 6 35 -12z"/>
<path d="M5633 5748 c-17 -13 -73 -70 -124 -128 -261 -294 -544 -605 -554
-608 -6 -1 -80 70 -165 159 -85 89 -173 175 -194 190 -44 33 -99 38 -146 14
-29 -15 -70 -72 -70 -96 1 -8 7 0 14 16 23 52 71 85 124 85 l46 0 196 -195
196 -195 284 317 c365 407 389 433 425 449 17 7 23 13 15 14 -9 0 -30 -10 -47
-22z"/>
<path d="M3792 5583 c-12 -43 -24 -105 -27 -138 -4 -57 -4 -57 9 16 7 41 21
102 30 133 10 32 15 60 13 63 -3 2 -14 -31 -25 -74z"/>
<path d="M4051 5576 c-11 -35 -22 -81 -25 -102 -4 -22 4 -3 17 41 13 44 27 90
31 103 4 12 5 22 2 22 -3 0 -14 -29 -25 -64z"/>
<path d="M5830 5585 c-8 -19 -189 -228 -402 -464 -415 -460 -417 -461 -496
-446 -31 6 -75 45 -286 253 -137 136 -241 235 -232 221 9 -14 121 -127 250
-252 194 -187 240 -227 270 -233 72 -13 97 6 306 237 585 645 617 682 608 709
-2 5 -10 -6 -18 -25z"/>
<path d="M6441 5554 c0 -11 3 -14 6 -6 3 7 2 16 -1 19 -3 4 -6 -2 -5 -13z"/>
<path d="M6191 5540 c-1 -3 6 -40 14 -83 8 -43 16 -97 16 -120 2 -35 3 -37 6
-12 5 32 -13 165 -27 199 -5 12 -9 19 -9 16z"/>
<path d="M6452 5510 c0 -14 2 -19 5 -12 2 6 2 18 0 25 -3 6 -5 1 -5 -13z"/>
<path d="M6467 5395 c3 -49 7 -92 9 -94 7 -8 3 104 -6 144 -5 27 -6 11 -3 -50z"/>
<path d="M4007 5378 c-4 -29 -6 -98 -5 -153 1 -92 2 -89 8 50 5 83 7 151 5
153 -1 1 -5 -21 -8 -50z"/>
<path d="M3756 5210 c2 -91 8 -181 13 -200 10 -33 10 -33 5 10 -4 25 -10 115
-14 200 l-8 155 4 -165z"/>
<path d="M6233 5235 c0 -22 2 -30 4 -17 2 12 2 30 0 40 -3 9 -5 -1 -4 -23z"/>
<path d="M6482 5230 c0 -19 2 -27 5 -17 2 9 2 25 0 35 -3 9 -5 1 -5 -18z"/>
<path d="M4380 5211 c0 -11 4 -22 9 -25 4 -3 6 6 3 19 -5 30 -12 33 -12 6z"/>
<path d="M6472 5144 c-3 -84 -30 -223 -63 -324 -65 -198 -168 -367 -320 -524
-152 -158 -320 -268 -522 -342 -51 -18 -87 -33 -80 -34 22 0 157 52 238 93
385 193 670 575 740 992 9 55 15 120 12 145 l-4 45 -1 -51z"/>
<path d="M6222 5144 c-1 -22 -7 -66 -13 -98 -6 -32 -8 -60 -6 -63 8 -8 29 133
24 168 -4 32 -4 32 -5 -7z"/>
<path d="M4012 5090 c0 -19 2 -27 5 -17 2 9 2 25 0 35 -3 9 -5 1 -5 -18z"/>
<path d="M4022 5030 c0 -14 2 -19 5 -12 2 6 2 18 0 25 -3 6 -5 1 -5 -13z"/>
<path d="M4031 4987 c-1 -30 46 -162 88 -245 143 -282 392 -489 696 -577 48
-14 97 -25 109 -25 11 1 -19 12 -69 24 -157 41 -273 96 -395 186 -83 62 -205
187 -259 269 -56 82 -124 227 -150 316 -11 39 -20 62 -20 52z"/>
<path d="M3781 4960 c-1 -19 41 -162 46 -157 2 3 -8 42 -21 88 -14 46 -25 77
-25 69z"/>
<path d="M6177 4913 c-8 -32 -14 -59 -12 -61 2 -2 11 21 20 53 9 31 15 58 13
61 -3 2 -12 -22 -21 -53z"/>
<path d="M6126 4776 c-68 -159 -233 -353 -387 -454 -128 -85 -129 -86 -62 -50
140 75 283 211 381 361 45 70 106 196 99 203 -2 2 -16 -25 -31 -60z"/>
<path d="M3835 4770 c18 -59 87 -193 139 -272 147 -221 330 -382 561 -493 101
-49 231 -96 259 -94 6 0 -28 13 -76 28 -120 39 -277 117 -380 191 -186 133
-377 367 -463 568 -38 89 -53 117 -40 72z"/>
<path d="M5545 4214 c-27 -13 -39 -21 -25 -18 29 7 100 43 85 43 -5 0 -32 -12
-60 -25z"/>
<path d="M5455 4180 c-13 -6 -15 -9 -5 -9 8 0 22 4 30 9 18 12 2 12 -25 0z"/>
<path d="M5395 4164 c-5 -2 -46 -10 -90 -18 -44 -8 -68 -15 -53 -15 28 -1 169
26 177 34 5 6 -20 5 -34 -1z"/>
<path d="M4968 4133 c12 -2 30 -2 40 0 9 3 -1 5 -23 4 -22 0 -30 -2 -17 -4z"/>
<path d="M5078 4123 c29 -2 74 -2 100 0 26 2 2 3 -53 3 -55 0 -76 -1 -47 -3z"/>
<path d="M5390 3904 l-55 -13 49 5 c27 3 58 9 70 14 31 13 -1 10 -64 -6z"/>
<path d="M4830 3900 c14 -4 36 -8 50 -8 22 0 22 1 -5 8 -16 4 -39 8 -50 8 -16
0 -15 -2 5 -8z"/>
<path d="M4950 3878 c25 -3 101 -7 170 -7 69 0 145 4 170 7 25 4 -52 7 -170 7
-118 0 -195 -3 -170 -7z"/>
</g>
</svg>
